<svg width="24" height="24" viewBox="0 0 24 24" fill="none" xmlns="http://www.w3.org/2000/svg">
<g clip-path="url(#clip0_362_1772)">
<path fill-rule="evenodd" clip-rule="evenodd" d="M0.5 2.41667C0.5 1.35812 1.35812 0.5 2.41667 0.5H21.5833C22.6419 0.5 23.5 1.35812 23.5 2.41667V21.5833C23.5 22.6419 22.6419 23.5 21.5833 23.5H2.41667C1.35812 23.5 0.5 22.6419 0.5 21.5833V2.41667ZM11.4717 16.4466C11.13 16.6886 10.7376 16.866 10.2981 16.9815C9.86356 17.0971 9.41213 17.1552 8.95 17.1552H3.94992V6.83934H8.81344C9.30693 6.83934 9.75218 6.88204 10.1592 6.97021C10.5639 7.05609 10.9094 7.19936 11.2012 7.39576C11.4885 7.59222 11.7134 7.85352 11.8744 8.18265C12.0317 8.50689 12.1105 8.91295 12.1105 9.39302C12.1105 9.91228 11.9927 10.3461 11.7571 10.6928C11.5195 11.0391 11.1707 11.3231 10.7043 11.5436C11.3393 11.7261 11.8094 12.0474 12.1212 12.5043C12.4345 12.9644 12.5879 13.5148 12.5879 14.1602C12.5879 14.6833 12.4877 15.1337 12.2876 15.5124C12.0857 15.8959 11.8106 16.2067 11.4717 16.4466ZM8.34642 8.59655H6.22143L6.22148 11.0071H8.51977C8.92216 11.0071 9.25539 10.9116 9.5193 10.7179C9.78055 10.5272 9.90721 10.212 9.90721 9.77971C9.90721 9.5397 9.86515 9.34133 9.78055 9.18736C9.69297 9.03338 9.57707 8.9129 9.43055 8.82857C9.2852 8.74078 9.12107 8.68013 8.93057 8.64744C8.74348 8.61087 8.54724 8.59655 8.34642 8.59655ZM6.22143 12.5575V15.3982L8.64515 15.3982C8.86929 15.3982 9.08199 15.3783 9.28206 15.3335C9.48518 15.2891 9.66534 15.2188 9.81724 15.1147C9.96913 15.0147 10.095 14.8775 10.1864 14.7031C10.2782 14.5302 10.3222 14.3057 10.3222 14.0345C10.3222 13.5028 10.1726 13.1254 9.875 12.896C9.57702 12.67 9.17958 12.5575 8.69067 12.5575H6.22143ZM15.4906 16.8771C15.0155 16.6872 14.6185 16.421 14.2845 16.074C13.959 15.7254 13.7061 15.3133 13.526 14.8292C13.3477 14.3477 13.2578 13.8147 13.2578 13.2371C13.2578 12.6785 13.3511 12.1568 13.5336 11.6746C13.7199 11.1907 13.9773 10.7732 14.3159 10.4229C14.6552 10.0708 15.0576 9.79289 15.5262 9.58999C15.9948 9.38779 16.5116 9.28604 17.0839 9.28604C17.7158 9.28604 18.2694 9.4077 18.7437 9.65537C19.2165 9.89964 19.604 10.2307 19.9085 10.6452C20.213 11.059 20.4295 11.5322 20.565 12.0629C20.6993 12.5928 20.7463 13.1463 20.7077 13.7258H15.3178C15.3178 14.3163 15.5174 14.8753 15.8258 15.1754C16.1329 15.4755 16.577 15.6264 17.1524 15.6264C17.5663 15.6264 17.9239 15.5218 18.2238 15.3133C18.5211 15.105 18.702 14.8824 18.772 14.6511H20.5787C20.2883 15.5503 19.8477 16.1922 19.2468 16.5786C18.6527 16.9666 17.9281 17.16 17.0839 17.16C16.4956 17.16 15.9661 17.0647 15.4906 16.8771ZM15.6865 11.4143C15.5542 11.5796 15.4639 11.7541 15.4115 11.9405C15.3587 12.1222 15.3273 12.2871 15.3177 12.4328H18.6557C18.6067 11.9097 18.4277 11.5229 18.1829 11.251C17.9392 10.9811 17.5261 10.8352 17.0223 10.8352C16.6945 10.8352 16.4233 10.8903 16.206 11.0027C15.9937 11.1136 15.8196 11.2517 15.6865 11.4143ZM19.0797 7.36027H14.8982V8.54366H19.0797V7.36027Z" fill="black"/>
</g>
<defs>
<clipPath id="clip0_362_1772">
<rect width="24" height="24" fill="white"/>
</clipPath>
</defs>
</svg>
