<svg width="24" height="24" viewBox="0 0 24 24" fill="none" xmlns="http://www.w3.org/2000/svg">
<path fill-rule="evenodd" clip-rule="evenodd" d="M20.9444 23.5H3.05556C1.64416 23.5 0.5 22.3558 0.5 20.9444V3.05556C0.5 1.64418 1.64416 0.5 3.05556 0.5H20.9444C22.3558 0.5 23.5 1.64418 23.5 3.05556V20.9444C23.5 22.3558 22.3558 23.5 20.9444 23.5ZM16.8925 20.3056H20.3056V13.2942C20.3056 10.3275 18.6239 8.89314 16.275 8.89314C13.925 8.89314 12.936 10.7232 12.936 10.7232V9.23146H9.64677V20.3056H12.936V14.4923C12.936 12.9347 13.653 12.0078 15.0254 12.0078C16.2869 12.0078 16.8925 12.8985 16.8925 14.4923V20.3056ZM3.69444 5.73792C3.69444 6.86643 4.60232 7.7814 5.72271 7.7814C6.84309 7.7814 7.75044 6.86643 7.75044 5.73792C7.75044 4.60942 6.84309 3.69444 5.72271 3.69444C4.60232 3.69444 3.69444 4.60942 3.69444 5.73792ZM7.45412 20.3056H4.02428V9.23146H7.45412V20.3056Z" fill="black"/>
</svg>
