<svg width="24" height="24" viewBox="0 0 24 24" fill="none" xmlns="http://www.w3.org/2000/svg">
<path fill-rule="evenodd" clip-rule="evenodd" d="M5.82857 0C2.60954 0 0 2.60954 0 5.82857V18.1714C0 21.3905 2.60954 24 5.82857 24H18.1714C21.3905 24 24 21.3905 24 18.1714V5.82857C24 2.60954 21.3905 0 18.1714 0H5.82857ZM18.7195 7.41622L19.9907 6.26662L20 5.9208H15.7194C15.5521 5.90951 15.3863 5.95773 15.2511 6.05694C15.116 6.15614 15.0203 6.29994 14.981 6.46289L12.5042 13.267L9.49469 6.061H5.03647V6.54701L6.19542 7.9957V16.4074L4.7 18.2767V18.529H9.12083V18.2767L7.58803 16.4074V9.86497C8.11319 10.7488 8.64274 11.9222 9.72096 14.3115C10.2163 15.4091 10.8273 16.7632 11.607 18.4636H12.3453L12.6351 17.529L15.252 10.1454V16.5944C15.252 16.7719 15.252 16.8093 15.1305 16.9308L14.0464 18.2019V18.4543H19.9813V18.2019L18.7195 16.9589C18.6687 16.92 18.629 16.8685 18.6044 16.8094C18.5798 16.7503 18.5711 16.6858 18.5794 16.6224V7.76204C18.5713 7.69723 18.58 7.63144 18.6045 7.57091C18.629 7.51039 18.6686 7.45714 18.7195 7.41622Z" fill="black"/>
</svg>
