<svg width="16" height="16" viewBox="0 0 16 16" fill="none" xmlns="http://www.w3.org/2000/svg">
<g clip-path="url(#clip0_371_1849)">
<path d="M15.84 6.11831C15.84 6.84254 15.056 7.29518 14.4288 6.93307C14.1377 6.76501 13.9584 6.45442 13.9584 6.11831V3.37431L9.29285 8.03989C8.77985 8.55289 7.9039 8.31818 7.71613 7.61741C7.62898 7.29219 7.72197 6.94517 7.96005 6.70709L12.6256 2.04151H9.88163C9.1574 2.04148 8.70476 1.25746 9.0669 0.630275C9.23495 0.339225 9.54555 0.159925 9.88163 0.159912H14.8992C15.4188 0.159937 15.84 0.581137 15.84 1.10071V6.11831ZM12.3904 7.99991C11.8708 7.99989 11.4496 8.42111 11.4496 8.94071V13.9583H2.04163V4.55031H7.05923C7.78347 4.55031 8.2361 3.76631 7.87399 3.13911C7.70594 2.84804 7.39533 2.66872 7.05923 2.66871H1.72803C0.862022 2.66867 0.160034 3.3707 0.160034 4.23671V14.2719C0.160034 15.1379 0.862053 15.8399 1.72803 15.8399H11.7632C12.6292 15.8399 13.3312 15.1379 13.3312 14.2719V8.94071C13.3312 8.42114 12.91 7.99994 12.3904 7.99991Z" fill="#1E40AF"/>
</g>
<defs>
<clipPath id="clip0_371_1849">
<rect width="16" height="16" fill="white"/>
</clipPath>
</defs>
</svg>
