<svg width="18" height="18" viewBox="0 0 18 18" fill="none" xmlns="http://www.w3.org/2000/svg">
<path d="M3 2V3H15V2H3Z" fill="#FDF480"/>
<path d="M17 4H16V14H17V4Z" fill="#FDF480"/>
<path d="M1 4H2V14H1V4Z" fill="#FDF480"/>
<path d="M15 15H3V16H15V15Z" fill="#FDF480"/>
<path d="M2 2H3V3H2V2Z" fill="#CE984B"/>
<path d="M2 4H1V3H2V4Z" fill="#CE984B"/>
<path fill-rule="evenodd" clip-rule="evenodd" d="M3 4H2V14H1V15H2V16H3V15H15V16H16V15H17V14H16V4H17V3H16V2H15V3H3V4ZM15 4H3V14H2V15H3V14H15V15H16V14H15V4ZM15 4H16V3H15V4Z" fill="#CE984B"/>
<path d="M3 14H2V15H3V14Z" fill="#A86C49"/>
<path fill-rule="evenodd" clip-rule="evenodd" d="M3 14H15V15H16V14H15V4H16V3H15V4H3V3H2V4H3V14ZM4 13H14V5H4V13Z" fill="#A86C49"/>
<path fill-rule="evenodd" clip-rule="evenodd" d="M1 2V1H17V2H18V16H17V17H1V16H0V2H1ZM16 16V15H17V3H16V2H2V3H1V15H2V16H16Z" fill="#A86C49"/>
<path d="M12 5H14V7H13V6H12V5Z" fill="#E86EC7"/>
<path d="M10 5H12V6H13V7H14V9H13V8H12V7H11V6H10V5Z" fill="#F09FD8"/>
<path d="M7 5V6H8V7H9V8H10V9H11V10H12V11H13V12H14V9H13V8H12V7H11V6H10V5H7Z" fill="#FBEC70"/>
<path d="M4 11H5V12H6V13H4V11Z" fill="#5A57B2"/>
<path d="M4 9H5V10H6V11H7V12H8V13H6V12H5V11H4V9Z" fill="#6175EC"/>
<path d="M5 6H4V9H5V10H6V11H7V12H8V13H11V12H10V11H9V10H8V9H7V8H6V7H5V6Z" fill="#58B1F8"/>
<path d="M4 5V6H5V7H6V8H7V9H8V10H9V11H10V12H11V13H14V12H13V11H12V10H11V9H10V8H9V7H8V6H7V5H4Z" fill="#68CD94"/>
</svg>
