<svg width="18" height="18" viewBox="0 0 18 18" fill="none" xmlns="http://www.w3.org/2000/svg">
<path fill-rule="evenodd" clip-rule="evenodd" d="M3 2H2V16H13V2H12V3H11V2H10V3H9V2H8V3H7V2H6V3H5V2H4V3H3V2ZM11 13V12H4V13H11ZM11 10V11H4V10H11ZM11 9V8H4V9H11ZM8 5V6H4V5H8Z" fill="#ABD6F9"/>
<path d="M3 1H2V2H1V16H2V17H13V16H14V17H15V16H16V2H15V16H14V2H13V1H12V2H13V16H2V2H3V1Z" fill="#6DA0C8"/>
<path d="M5 1H4V2H5V1Z" fill="#6DA0C8"/>
<path d="M6 1H7V2H6V1Z" fill="#6DA0C8"/>
<path d="M9 1H8V2H9V1Z" fill="#6DA0C8"/>
<path d="M10 1H11V2H10V1Z" fill="#6DA0C8"/>
<path d="M4 0H5V1H4V0Z" fill="#436785"/>
<path d="M4 1V3H3V1H4Z" fill="#436785"/>
<path d="M6 1V3H5V1H6Z" fill="#436785"/>
<path d="M7 1H6V0H7V1Z" fill="#436785"/>
<path d="M8 1V3H7V1H8Z" fill="#436785"/>
<path d="M9 1H8V0H9V1Z" fill="#436785"/>
<path d="M10 1V3H9V1H10Z" fill="#436785"/>
<path d="M11 1H10V0H11V1Z" fill="#436785"/>
<path d="M12 1V3H11V1H12Z" fill="#436785"/>
<path d="M13 1H12V0H13V1Z" fill="#436785"/>
<path fill-rule="evenodd" clip-rule="evenodd" d="M16 2V1H13V2H14V16H13V17H3V18H15V17H16V16H17V2H16ZM15 16H16V2H15V16ZM15 16V17H14V16H15Z" fill="#436785"/>
<path d="M4 6V5H8V6H4Z" fill="#436785"/>
<path d="M11 8H4V9H11V8Z" fill="#436785"/>
<path d="M11 10H4V11H11V10Z" fill="#436785"/>
<path d="M11 12H4V13H11V12Z" fill="#436785"/>
</svg>
