<svg width="18" height="18" viewBox="0 0 18 18" fill="none" xmlns="http://www.w3.org/2000/svg">
<path d="M3 0V1H2V7H3V1H15V7H16V1H15V0H3Z" fill="#436785"/>
<path d="M5 3V4H13V3H5Z" fill="#436785"/>
<path d="M5 5V6H13V5H5Z" fill="#436785"/>
<path d="M5 7H13V8H5V7Z" fill="#436785"/>
<path fill-rule="evenodd" clip-rule="evenodd" d="M3 1V6H4V7H14V6H15V1H3ZM13 5V6H5V5H13ZM13 4V3H5V4H13Z" fill="#ABD6F9"/>
<path d="M6 8H12V9H11V10H7V9H6V8Z" fill="#ABD6F9"/>
<path d="M4 6H3V7H4V8H5V9H6V10H7V11H11V10H12V9H13V8H14V7H15V6H14V7H13V8H12V9H11V10H7V9H6V8H5V7H4V6Z" fill="#6DA0C8"/>
<path d="M1 8H3V9H4V10H5V12H4V13H3V14H2V15H1V8Z" fill="#F6C9EA"/>
<path d="M16 8H15V9H14V10H13V12H14V13H15V14H16V8Z" fill="#F6C9EA"/>
<path d="M6 13H12V14H13V15H14V16H4V15H5V14H6V13Z" fill="#F6C9EA"/>
<path d="M4 8H3V9H4V10H5V11H6V10H5V9H4V8Z" fill="white"/>
<path d="M15 8H14V9H13V10H12V11H13V10H14V9H15V8Z" fill="white"/>
<path d="M6 12H12V13H6V12Z" fill="white"/>
<path d="M5 14V13H6V14H5Z" fill="white"/>
<path d="M4 15V14H5V15H4Z" fill="white"/>
<path d="M4 15V16H3V15H4Z" fill="white"/>
<path d="M13 14H12V13H13V14Z" fill="white"/>
<path d="M14 15V14H13V15H14Z" fill="white"/>
<path d="M14 15V16H15V15H14Z" fill="white"/>
<path d="M16 8H17V16H16V15H15V14H16V8Z" fill="#F09FD8"/>
<path d="M14 13H15V14H14V13Z" fill="#F09FD8"/>
<path d="M13 12H14V13H13V12Z" fill="#F09FD8"/>
<path d="M13 12H12V11H13V12Z" fill="#F09FD8"/>
<path d="M16 17V16H2V15H3V14H4V13H5V12H6V11H5V12H4V13H3V14H2V15H1V16H2V17H16Z" fill="#F09FD8"/>
<path d="M16 5H17V6H18V8H17V7H16V5Z" fill="#A54F86"/>
<path d="M1 7H4V8H1V7Z" fill="#A54F86"/>
<path d="M1 17V8H0V17H1Z" fill="#A54F86"/>
<path d="M1 17V18H2V17H1Z" fill="#A54F86"/>
<path d="M1 5H2V7H1V8H0V6H1V5Z" fill="#9C2355"/>
<path d="M15 15H16V16H15V15Z" fill="#9C2355"/>
<path d="M14 14H15V15H14V14Z" fill="#9C2355"/>
<path d="M13 13H14V14H13V13Z" fill="#9C2355"/>
<path d="M13 13V12H12V13H13Z" fill="#9C2355"/>
<path fill-rule="evenodd" clip-rule="evenodd" d="M14 7V8H13V9H12V10H11V11H7V10H6V9H5V8H4V9H5V10H6V12H5V13H4V14H3V15H2V16H1V17H2V18H17V17H18V8H17V7H14ZM16 16H17V8H14V9H13V10H12V12H6V13H5V14H4V15H3V16H2V17H16V16Z" fill="#9C2355"/>
</svg>
