<svg width="24" height="24" viewBox="0 0 24 24" fill="none" xmlns="http://www.w3.org/2000/svg">
<path fill-rule="evenodd" clip-rule="evenodd" d="M5.82857 0C2.60954 0 0 2.60954 0 5.82857V18.1714C0 21.3905 2.60954 24 5.82857 24H18.1714C21.3905 24 24 21.3905 24 18.1714V5.82857C24 2.60954 21.3905 0 18.1714 0H5.82857ZM10.2241 17.1982C10.6828 17.0776 11.0923 16.8924 11.4488 16.6399C11.8024 16.3897 12.0894 16.0653 12.3002 15.6652C12.509 15.27 12.6135 14.7999 12.6135 14.2541C12.6135 13.5807 12.4535 13.0063 12.1265 12.5263C11.8012 12.0495 11.3107 11.7142 10.6481 11.5238C11.1347 11.2937 11.4987 10.9973 11.7465 10.636C11.9924 10.2742 12.1154 9.82153 12.1154 9.2797C12.1154 8.77876 12.0332 8.35504 11.869 8.01671C11.701 7.67326 11.4663 7.4006 11.1665 7.1956C10.862 6.99066 10.5015 6.84116 10.0792 6.75154C9.6545 6.65954 9.18989 6.61499 8.67495 6.61499H3.59998V17.3793H8.81745C9.29967 17.3794 9.77072 17.3187 10.2241 17.1982ZM5.97024 8.44859H8.18762C8.39717 8.44859 8.60195 8.46354 8.79717 8.5017C8.99595 8.53581 9.16722 8.59909 9.31889 8.6907C9.47178 8.7787 9.59272 8.90442 9.68411 9.06509C9.77239 9.22575 9.81628 9.43275 9.81628 9.6832C9.81628 10.1342 9.68411 10.4632 9.4115 10.6621C9.13612 10.8643 8.78839 10.9639 8.36851 10.9639H5.9703L5.97024 8.44859ZM5.97024 15.546V12.5818H8.54684C9.057 12.5818 9.47172 12.6991 9.78267 12.935C10.0932 13.1743 10.2493 13.5681 10.2493 14.123C10.2493 14.406 10.2034 14.6403 10.1076 14.8207C10.0122 15.0027 9.88089 15.1458 9.72239 15.2502C9.56389 15.3587 9.37589 15.4322 9.16395 15.4785C8.95517 15.5252 8.73323 15.5459 8.49934 15.5459L5.97024 15.546ZM14.3839 16.2513C14.7323 16.6133 15.1467 16.8912 15.6424 17.0893C16.1386 17.2851 16.691 17.3845 17.305 17.3845C18.1859 17.3845 18.942 17.1827 19.5619 16.7778C20.1889 16.3746 20.6487 15.7048 20.9517 14.7666H19.0665C18.9934 15.0079 18.8046 15.2402 18.4945 15.4575C18.1815 15.6751 17.8083 15.7842 17.3764 15.7842C16.776 15.7842 16.3127 15.6268 15.9922 15.3136C15.6704 15.0005 15.462 14.4171 15.462 13.801H21.0863C21.1266 13.1963 21.0776 12.6187 20.9374 12.0658C20.7961 11.512 20.5701 11.0182 20.2524 10.5865C19.9347 10.154 19.5303 9.80849 19.037 9.5536C18.542 9.29516 17.9644 9.16821 17.305 9.16821C16.7078 9.16821 16.1685 9.27438 15.6795 9.48538C15.1905 9.6971 14.7707 9.9871 14.4166 10.3545C14.0633 10.72 13.7947 11.1557 13.6003 11.6606C13.4099 12.1638 13.3125 12.7082 13.3125 13.291C13.3125 13.8937 13.4063 14.45 13.5923 14.9524C13.7803 15.4576 14.0442 15.8875 14.3839 16.2513ZM15.5598 11.9381C15.6145 11.7435 15.7087 11.5615 15.8468 11.389C15.9857 11.2194 16.1674 11.0753 16.3889 10.9595C16.6156 10.8422 16.8986 10.7847 17.2406 10.7847C17.7664 10.7847 18.1975 10.937 18.4518 11.2186C18.7072 11.5024 18.894 11.9059 18.9451 12.4518H15.462C15.472 12.2998 15.5048 12.1277 15.5598 11.9381ZM19.3875 6.86H15.0242V8.09H19.3875V6.86Z" fill="black"/>
</svg>
