<svg width="36" height="36" viewBox="0 0 36 36" fill="none" xmlns="http://www.w3.org/2000/svg">
<path d="M32.7863 4.82621H26.0363V2.25478C26.0363 2.07799 25.8917 1.93335 25.7149 1.93335H23.4649C23.2881 1.93335 23.1435 2.07799 23.1435 2.25478V4.82621H12.8577V2.25478C12.8577 2.07799 12.7131 1.93335 12.5363 1.93335H10.2863C10.1095 1.93335 9.96488 2.07799 9.96488 2.25478V4.82621H3.21488C2.50372 4.82621 1.92917 5.40076 1.92917 6.11192V32.7905C1.92917 33.5017 2.50372 34.0762 3.21488 34.0762H32.7863C33.4975 34.0762 34.072 33.5017 34.072 32.7905V6.11192C34.072 5.40076 33.4975 4.82621 32.7863 4.82621ZM31.1792 31.1834H4.82203V15.9155H31.1792V31.1834ZM4.82203 13.1834V7.71906H9.96488V9.64764C9.96488 9.82442 10.1095 9.96906 10.2863 9.96906H12.5363C12.7131 9.96906 12.8577 9.82442 12.8577 9.64764V7.71906H23.1435V9.64764C23.1435 9.82442 23.2881 9.96906 23.4649 9.96906H25.7149C25.8917 9.96906 26.0363 9.82442 26.0363 9.64764V7.71906H31.1792V13.1834H4.82203Z" fill="black" fill-opacity="0.66"/>
</svg>
