<?xml version="1.0" encoding="UTF-8" ?>
<svg version="1.1" width="9" height="9" xmlns="http://www.w3.org/2000/svg" shape-rendering="crispEdges">
<rect x="4" y="0" width="1" height="1" fill="#1E40AF" />
<rect x="4" y="1" width="1" height="1" fill="#1E40AF" />
<rect x="4" y="2" width="1" height="1" fill="#1E40AF" />
<rect x="4" y="3" width="1" height="1" fill="#1E40AF" />
<rect x="2" y="4" width="1" height="1" fill="#1E40AF" />
<rect x="3" y="4" width="1" height="1" fill="#1E40AF" />
<rect x="4" y="4" width="1" height="1" fill="#1E40AF" />
<rect x="5" y="4" width="1" height="1" fill="#1E40AF" />
<rect x="6" y="4" width="1" height="1" fill="#1E40AF" />
<rect x="3" y="5" width="1" height="1" fill="#1E40AF" />
<rect x="4" y="5" width="1" height="1" fill="#1E40AF" />
<rect x="5" y="5" width="1" height="1" fill="#1E40AF" />
<rect x="0" y="6" width="1" height="1" fill="#1E40AF" />
<rect x="4" y="6" width="1" height="1" fill="#1E40AF" />
<rect x="8" y="6" width="1" height="1" fill="#1E40AF" />
<rect x="0" y="7" width="1" height="1" fill="#1E40AF" />
<rect x="8" y="7" width="1" height="1" fill="#1E40AF" />
<rect x="0" y="8" width="1" height="1" fill="#1E40AF" />
<rect x="1" y="8" width="1" height="1" fill="#1E40AF" />
<rect x="2" y="8" width="1" height="1" fill="#1E40AF" />
<rect x="3" y="8" width="1" height="1" fill="#1E40AF" />
<rect x="4" y="8" width="1" height="1" fill="#1E40AF" />
<rect x="5" y="8" width="1" height="1" fill="#1E40AF" />
<rect x="6" y="8" width="1" height="1" fill="#1E40AF" />
<rect x="7" y="8" width="1" height="1" fill="#1E40AF" />
<rect x="8" y="8" width="1" height="1" fill="#1E40AF" />
</svg>