<svg xmlns="http://www.w3.org/2000/svg" viewBox="0 0 24 24" id="Link--Streamline-Font-Awesome" height="24" width="24"><desc>Link Streamline Icon: https://streamlinehq.com</desc><!--! Font Awesome Free 6.5.2 by @fontawesome - https://fontawesome.com License - https://fontawesome.com/license/free (Icons: CC BY 4.0, Fonts: SIL OFL 1.1, Code: MIT License) Copyright 2024 Fonticons, Inc.--><path d="M22.110854999999997 12.45534c2.1988612499999998 -2.1988575 2.1988612499999998 -5.7598424999999995 0 -7.958699999999999 -1.94589 -1.94589375 -5.0126175 -2.1988575 -7.250392499999999 -0.59933625l-0.06226875 0.042809999999999994c-0.56041875 0.40085625 -0.6888449999999999 1.1792099999999999 -0.2879925 1.7357362499999998s1.1792099999999999 0.6888449999999999 1.7357362499999998 0.2879925l0.06226875 -0.042809999999999994c1.24926375 -0.8912174999999999 2.95775625 -0.7511137499999999 4.0396725 0.334695 1.2259125 1.2259125 1.2259125 3.2107200000000002 0 4.4366325L15.981296249999998 15.066727499999999c-1.2259125 1.2259125 -3.2107237499999997 1.2259125 -4.436636249999999 0 -1.085805 -1.08580875 -1.2259125 -2.79430125 -0.33469125 -4.0396725l0.042809999999999994 -0.06226875c0.40085249999999994 -0.56041875 0.26853 -1.3387762499999998 -0.2879925 -1.7357362499999998s-1.3387762499999998 -0.26853374999999996 -1.7357362499999998 0.2879925l-0.042809999999999994 0.06226875c-1.6034137499999999 2.2338825 -1.35045 5.30061 0.59544375 7.2465 2.1988575 2.1988612499999998 5.759838749999999 2.1988612499999998 7.958699999999999 0l4.37047125 -4.37047125ZM1.889145 11.544659999999999c-2.1988612499999998 2.1988612499999998 -2.1988612499999998 5.7598424999999995 0 7.958699999999999 1.94589 1.94589375 5.0126175 2.1988575 7.250392499999999 0.59933625l0.06226875 -0.042809999999999994c0.56041875 -0.40085249999999994 0.6888449999999999 -1.1792099999999999 0.2879925 -1.7357362499999998s-1.1792099999999999 -0.6888449999999999 -1.7357362499999998 -0.2879925l-0.06226875 0.042809999999999994c-1.24926375 0.8912174999999999 -2.95775625 0.7511137499999999 -4.0396725 -0.334695 -1.2259125 -1.22980125 -1.2259125 -3.2146125 0 -4.440525l4.3665825 -4.370475c1.2259125 -1.2259125 3.2107237499999997 -1.2259125 4.436636249999999 0 1.085805 1.08580875 1.2259125 2.79430125 0.33469125 4.043565l-0.042809999999999994 0.06226875c-0.40085249999999994 0.56041875 -0.26853 1.3387725 0.2879925 1.7357362499999998s1.3387762499999998 0.26853374999999996 1.7357362499999998 -0.2879925l0.042809999999999994 -0.06226875c1.6034175000000002 -2.237775 1.35045 -5.304502499999999 -0.59544375 -7.250392499999999 -2.1988575 -2.1988612499999998 -5.759838749999999 -2.1988612499999998 -7.958699999999999 0L1.889145 11.544659999999999Z" fill="#000000" stroke-width="0.0375"></path></svg>