<svg width="24" height="24" viewBox="0 0 24 24" fill="none" xmlns="http://www.w3.org/2000/svg">
<path d="M22.5417 0.5H1.45833C1.20417 0.5 0.960412 0.600967 0.780689 0.780689C0.600967 0.960412 0.5 1.20417 0.5 1.45833L0.5 22.5417C0.5 22.7958 0.600967 23.0396 0.780689 23.2193C0.960412 23.399 1.20417 23.5 1.45833 23.5H22.5417C22.7958 23.5 23.0396 23.399 23.2193 23.2193C23.399 23.0396 23.5 22.7958 23.5 22.5417V1.45833C23.5 1.20417 23.399 0.960412 23.2193 0.780689C23.0396 0.600967 22.7958 0.5 22.5417 0.5ZM20.0117 6.10625L18.7083 7.285C18.6561 7.32696 18.6155 7.38155 18.5904 7.44361C18.5652 7.50567 18.5563 7.57313 18.5646 7.63958V16.7246C18.5562 16.7896 18.565 16.8558 18.5902 16.9163C18.6155 16.9769 18.6562 17.0298 18.7083 17.0696L20.0021 18.3442V18.6029H13.9167V18.3442L15.0283 17.0408C15.1529 16.9162 15.1529 16.8779 15.1529 16.6958V10.0833L12.4696 17.6542L12.1725 18.6125H11.4154C8.87583 13.0733 8.08042 11.1183 7.29458 9.79583V16.5042L8.86625 18.4208V18.6796H4.33333V18.4208L5.86667 16.5042V7.87917L4.67833 6.39375V5.89542H9.24958L12.3354 13.2842L14.875 6.3075C14.9153 6.14041 15.0134 5.99297 15.152 5.89125C15.2905 5.78953 15.4606 5.74009 15.6321 5.75167H20.0213L20.0117 6.10625Z" fill="black"/>
</svg>
