<svg width="18" height="18" viewBox="0 0 18 18" fill="none" xmlns="http://www.w3.org/2000/svg">
<path d="M8 4H7V6H8V7H9V6H10V4H9V5H8V4Z" fill="#BBFA95"/>
<path fill-rule="evenodd" clip-rule="evenodd" d="M8 3H7V4H6V6H7V7H8V8H9V7H10V6H11V4H10V3H9V4H8V3ZM8 4V5H9V4H10V6H9V7H8V6H7V4H8Z" fill="#68CD94"/>
<path fill-rule="evenodd" clip-rule="evenodd" d="M4 2H13V9H4V2ZM9 8V7H10V6H11V4H10V3H9V4H8V3H7V4H6V6H7V7H8V8H9Z" fill="#31737B"/>
<path d="M4 14H3V15H2V16H3V15H4V14Z" fill="#F6C9EA"/>
<path d="M7 14H6V15H5V16H6V15H7V14Z" fill="#F6C9EA"/>
<path d="M9 14H10V15H9V14Z" fill="#F6C9EA"/>
<path d="M9 15V16H8V15H9Z" fill="#F6C9EA"/>
<path d="M13 14H12V15H11V16H12V15H13V14Z" fill="#F6C9EA"/>
<path d="M17 9H16V10H15V11H14V10H3V11H14V13H15V11H16V10H17V9Z" fill="#A54F86"/>
<path d="M4 14H5V15H4V14Z" fill="#A54F86"/>
<path d="M4 15V16H3V15H4Z" fill="#A54F86"/>
<path d="M8 14H7V15H6V16H7V15H8V14Z" fill="#A54F86"/>
<path d="M11 14H10V15H9V16H10V15H11V14Z" fill="#A54F86"/>
<path d="M13 14H14V15H13V14Z" fill="#A54F86"/>
<path d="M13 15V16H12V15H13Z" fill="#A54F86"/>
<path fill-rule="evenodd" clip-rule="evenodd" d="M3 1V10H14V1H3ZM13 9H4V2H13V9Z" fill="#F09FD8"/>
<path d="M3 11V13H4V12H7V13H10V12H13V13H14V11H3Z" fill="#F09FD8"/>
<path d="M16 10H17V11H16V10Z" fill="#F09FD8"/>
<path d="M16 11V12H15V11H16Z" fill="#F09FD8"/>
<path d="M3 14H2V15H1V16H2V15H3V14Z" fill="#F09FD8"/>
<path d="M5 14H6V15H5V14Z" fill="#F09FD8"/>
<path d="M5 15V16H4V15H5Z" fill="#F09FD8"/>
<path d="M9 14H8V15H7V16H8V15H9V14Z" fill="#F09FD8"/>
<path d="M11 14H12V15H11V14Z" fill="#F09FD8"/>
<path d="M11 15V16H10V15H11Z" fill="#F09FD8"/>
<path d="M15 14H14V15H13V16H14V15H15V14Z" fill="#F09FD8"/>
<path d="M14 1H16V9H15V10H14V1Z" fill="#E86EC7"/>
<path d="M4 12V13H7V12H4Z" fill="#E86EC7"/>
<path d="M10 12V13H13V12H10Z" fill="#E86EC7"/>
<path d="M16 11H17V14H16V15H15V12H16V11Z" fill="#E86EC7"/>
<path d="M14 16V15H15V16H14Z" fill="#E86EC7"/>
<path d="M14 16V17H1V16H14Z" fill="#E86EC7"/>
<path d="M3 0H16V1H3V0Z" fill="#9C2355"/>
<path d="M3 1V10H2V1H3Z" fill="#9C2355"/>
<path d="M17 9V1H16V9H15V10H14V11H15V10H16V9H17Z" fill="#9C2355"/>
<path d="M17 14V9H18V14H17Z" fill="#9C2355"/>
<path d="M16 15V14H17V15H16Z" fill="#9C2355"/>
<path d="M15 16V15H16V16H15Z" fill="#9C2355"/>
<path d="M14 17H15V16H14V17Z" fill="#9C2355"/>
<path d="M14 18V17H1V15H2V14H15V13H3V11H2V14H1V15H0V17H1V18H14Z" fill="#9C2355"/>
</svg>
