<svg width="18" height="18" viewBox="0 0 18 18" fill="none" xmlns="http://www.w3.org/2000/svg">
<path d="M4 5H9V6H12V5H14V9H13V8H10V9H9V10H14V12H13V13H9V12H8V11H5V12H4V8H7V7H6V6H4V5Z" fill="#ABD6F9"/>
<path d="M9 5H12V6H9V5Z" fill="white"/>
<path d="M10 8H13V9H14V10H9V9H10V8Z" fill="white"/>
<path d="M4 6H6V7H7V8H4V6Z" fill="white"/>
<path d="M5 11H8V12H9V13H4V12H5V11Z" fill="white"/>
<path d="M14 12H13V13H14V12Z" fill="white"/>
<path d="M3 2V3H15V2H3Z" fill="#FDF480"/>
<path d="M17 4H16V14H17V4Z" fill="#FDF480"/>
<path d="M1 4H2V14H1V4Z" fill="#FDF480"/>
<path d="M15 15H3V16H15V15Z" fill="#FDF480"/>
<path d="M2 2H3V3H2V2Z" fill="#CE984B"/>
<path d="M2 4H1V3H2V4Z" fill="#CE984B"/>
<path fill-rule="evenodd" clip-rule="evenodd" d="M3 4H2V14H1V15H2V16H3V15H15V16H16V15H17V14H16V4H17V3H16V2H15V3H3V4ZM15 4H3V14H2V15H3V14H15V15H16V14H15V4ZM15 4H16V3H15V4Z" fill="#CE984B"/>
<path d="M3 14H2V15H3V14Z" fill="#A86C49"/>
<path fill-rule="evenodd" clip-rule="evenodd" d="M3 14H15V15H16V14H15V4H16V3H15V4H3V3H2V4H3V14ZM4 13H14V5H4V13Z" fill="#A86C49"/>
<path fill-rule="evenodd" clip-rule="evenodd" d="M1 2V1H17V2H18V16H17V17H1V16H0V2H1ZM16 16V15H17V3H16V2H2V3H1V15H2V16H16Z" fill="#A86C49"/>
</svg>
