<svg width="18" height="18" viewBox="0 0 18 18" fill="none" xmlns="http://www.w3.org/2000/svg">
<path fill-rule="evenodd" clip-rule="evenodd" d="M2 2H3V3H4V2H5V3H6V2H7V3H8V2H9V3H10V2H11V3H12V2H13V11H11V10H4V11H8V12H4V13H8V16H2V2ZM11 9H4V8H11V9ZM8 6V5H4V6H8Z" fill="#ABD6F9"/>
<path d="M9 12V16H10V15H11V14H12V13H13V12H9Z" fill="#ABD6F9"/>
<path d="M14 14H15V16H13V15H14V14Z" fill="#ABD6F9"/>
<path d="M12 14V15H11V14H12Z" fill="#6DA0C8"/>
<path fill-rule="evenodd" clip-rule="evenodd" d="M3 1H2V2H1V16H2V17H8V16H9V17H10V16H11V17H15V16H16V2H15V13H14V12H13V11H14V2H13V1H12V2H13V11H8V16H2V2H3V1ZM13 13H14V14H13V13ZM12 14V13H13V12H9V16H10V15H11V16H12V15H13V16H15V14H14V15H13V14H12Z" fill="#6DA0C8"/>
<path d="M4 1H5V2H4V1Z" fill="#6DA0C8"/>
<path d="M6 1H7V2H6V1Z" fill="#6DA0C8"/>
<path d="M8 1H9V2H8V1Z" fill="#6DA0C8"/>
<path d="M10 1H11V2H10V1Z" fill="#6DA0C8"/>
<path d="M12 0H13V1H12V0Z" fill="#436785"/>
<path d="M11 1V3H12V1H11Z" fill="#436785"/>
<path d="M10 1V0H11V1H10Z" fill="#436785"/>
<path d="M9 1V3H10V1H9Z" fill="#436785"/>
<path d="M8 1H9V0H8V1Z" fill="#436785"/>
<path d="M7 1V3H8V1H7Z" fill="#436785"/>
<path d="M6 1V0H7V1H6Z" fill="#436785"/>
<path d="M5 1V3H6V1H5Z" fill="#436785"/>
<path d="M4 1V0H5V1H4Z" fill="#436785"/>
<path d="M4 1V3H3V1H4Z" fill="#436785"/>
<path fill-rule="evenodd" clip-rule="evenodd" d="M16 2V1H13V2H14V11H13V12H14V13H13V14H12V15H11V16H10V17H9V16H8V17H3V18H15V17H16V16H17V2H16ZM16 2V16H15V17H11V16H12V15H13V14H14V13H15V2H16Z" fill="#436785"/>
<path d="M4 6V5H8V6H4Z" fill="#436785"/>
<path d="M11 8H4V9H11V8Z" fill="#436785"/>
<path d="M11 10H4V11H11V10Z" fill="#436785"/>
<path d="M4 13V12H8V13H4Z" fill="#436785"/>
</svg>
